<?xml version="1.0" encoding="UTF-8"?><svg id="a" xmlns="http://www.w3.org/2000/svg" width="317.99" height="181" viewBox="0 0 317.99 181"><path d="M172.45,12.49c0-6.45-5.23-11.67-11.68-11.67-2.07,0-3.36.66-4.65,1.31-1.29.66-2.58,1.31-4.65,1.31-2.26,0-4.23-1.25-5.25-3.09-.32-.57-1.16-.44-1.28.21-.13.72-.19,1.47-.19,2.25,0,6.96,5.64,12.6,12.59,12.6,2.3,0,4.46-.62,6.31-1.69v1.04c0,4.33,3.5,7.85,7.83,7.85.32,0,.66-.03.97-.07v-10.05h.01ZM105.35,170.73c.36,0,.63.27.71.62.37,1.85,2.02,3.36,4.87,3.36s4.81-1.35,4.86-3.52c.05-1.49-.62-2.79-3.99-3.75l-3.99-1.11c-7.3-2.26-8.56-6.55-8.56-9.53,0-5.92,5.05-9.91,11.4-9.91s10.79,3.49,11.18,9.36c.02.43-.34.79-.76.79h-5.6c-.36,0-.63-.29-.69-.65-.27-1.86-1.72-3.1-4.24-3.1s-4.28,1.35-4.28,3.32c0,.87.34,2.46,3.55,3.36l3.94,1.26c8.03,2.32,9.19,6.83,9.09,10.01-.09,6.6-6.06,9.71-11.93,9.71-6.89,0-11.59-3.91-11.99-9.45-.03-.43.32-.79.76-.79h5.66ZM79.87,156.31c.27.28.72.31,1.02.05v.03s4.07-3.51,4.07-3.51c.32-.27.36-.78.07-1.09-2.9-2.99-7.13-4.86-11.93-4.86-9.51,0-16.97,7.71-16.97,17.03s7.65,16.98,16.97,16.98,15.87-5.26,16.14-17.12c.01-.41-.34-.78-.76-.78h-15.5c-.41,0-.75.34-.75.75v4.22c0,.41.34.75.75.75h8.14c-.04,3.52-4.47,5.73-8.03,5.73-5.57,0-9.9-4.77-9.9-10.54s4.32-10.49,9.9-10.49c2.64,0,4.99,1.07,6.77,2.85ZM189.74,146.98c9.42,0,16.83,7.61,16.83,17.04s-7.4,16.98-16.83,16.98-16.77-7.66-16.77-16.98,7.41-17.04,16.77-17.04ZM189.74,174.03c5.48,0,9.81-4.48,9.81-10.01s-4.33-10.06-9.81-10.06-9.76,4.53-9.76,10.06,4.28,10.01,9.76,10.01ZM233.6,146.98c9.42,0,16.83,7.61,16.83,17.04s-7.4,16.98-16.83,16.98-16.77-7.66-16.77-16.98,7.4-17.04,16.77-17.04ZM233.6,174.03c5.48,0,9.81-4.48,9.81-10.01s-4.33-10.06-9.81-10.06-9.76,4.53-9.76,10.06,4.28,10.01,9.76,10.01ZM24.81,170.29c0-2.69-1.89-6.44-6.26-7.55,3.41-1.31,4.52-4.05,4.52-6.21,0-5.68-3.85-9.24-9.81-9.24H.75c-.41,0-.75.34-.75.75v31.65c0,.41.34.75.75.75h13.48c6.59,0,10.58-4.67,10.58-10.15ZM15.68,156.97c0,1.97-1.25,3.41-3.08,3.41h-5.53v-6.88h5.48c2.07,0,3.13,1.5,3.13,3.47ZM7.07,174.23v-8.03h6.64c2.49,0,3.7,1.98,3.7,3.95s-1.2,4.09-3.55,4.09h-6.78ZM43.95,148.04v31.65c0,.41-.34.75-.75.75h-5.52c-.41,0-.75-.34-.75-.75v-31.65c0-.41.34-.75.75-.75h5.52c.41,0,.75.34.75.75ZM163.2,174.29c.25-.34.15-.83-.19-1.06h.01l-4.45-3.09c-.34-.23-.79-.14-1.03.18-1.82,2.37-4.64,3.97-7.84,3.97-5.53,0-9.56-4.57-9.56-10.35s4.03-10.4,9.56-10.4c3.15,0,5.85,1.47,7.65,3.75.25.31.69.4,1.02.17l4.5-3.09c.35-.25.44-.74.18-1.07-2.95-3.87-7.74-6.39-13.35-6.39-9.47,0-16.63,7.71-16.63,17.03s7.16,16.98,16.63,16.98c5.71,0,10.56-2.61,13.5-6.63ZM260.04,147.29h23.5c.41,0,.75.34.75.75v4.85c0,.41-.34.75-.75.75h-8.19v26.05c0,.41-.34.75-.75.75h-5.61c-.41,0-.75-.34-.75-.75v-26.05h-8.19c-.41,0-.75-.34-.75-.75v-4.85c0-.41.34-.75.75-.75ZM301.2,171.35c-.08-.35-.35-.62-.71-.62h-.01s-5.65-.01-5.65-.01c-.44,0-.79.36-.76.79.41,5.55,5.11,9.45,11.99,9.45,5.87,0,11.84-3.12,11.93-9.71.1-3.18-1.06-7.7-9.08-10.01l-3.94-1.26c-3.22-.9-3.55-2.5-3.55-3.36,0-1.98,1.76-3.32,4.28-3.32s3.97,1.24,4.24,3.1c.05.36.32.65.68.65h5.6c.43,0,.79-.36.76-.79-.39-5.87-4.83-9.36-11.18-9.36s-11.4,3.98-11.4,9.91c0,2.99,1.24,7.27,8.56,9.53l3.99,1.11c3.37.96,4.04,2.26,3.99,3.75-.05,2.17-2,3.52-4.86,3.52s-4.5-1.51-4.87-3.36ZM183.34,41.4c2.03,1.11,3.76,2.51,5.09,4.11v.03c1.82,2.23,2.88,4.82,2.88,7.62,0,6.17-3.97,11.65-10.11,15.15-4.34,2.47-9.78,3.93-15.69,3.93-4.89,0-9.45-1-13.34-2.74h-.01c4.78,4.1,11.9,6.7,19.86,6.7,2.04,0,4.02-.17,5.92-.49-1.96,3.25-4.5,6.11-7.47,8.45.07.18.12.36.17.54h0c1.76,6.53,1.38,29.7-1.55,30.49-2.75.74-13.49-17.1-16.14-24.32-.66.04-1.32.07-1.98.07-3.14,0-6.18-.47-9.03-1.32h-.02c-3.18,6.06-6.95,11.59-8.64,11.29-1.8-.31-3.58-7.68-4.45-14.95,3.67,1.86,7.74,3.02,12.05,3.32-12.47-4.21-21.45-16-21.45-29.91,0-2.23.27-4.54.79-6.91.02-.08.04-.15.05-.23h0c.02-.08.03-.16.05-.23.01-.04.03-.08.03-.12.02-.08.04-.17.06-.25.02-.08.04-.16.06-.25.04-.18.08-.35.13-.53.02-.07.04-.13.05-.19.02-.06.03-.12.05-.19.02-.07.04-.14.06-.22h0c.02-.08.04-.15.06-.22l.12-.43c.01-.07.03-.13.05-.19h0s.03-.09.04-.14l.35-1.12h0c2.7-8.28,7.95-16.8,14.27-23.83-.3.82-.5,1.54-.58,2.12-.8,6.18,7.65,12.39,18.88,13.87,1.64.21,3.23.31,4.78.31,7.95,0,14.47-2.7,16.46-6.91.12-.24.24-.5.37-.78,2.44-5.18,7.68-16.32,18.33-16.32,6.62,0,11.08,2.32,14.73,4.21,2.54,1.32,4.69,2.44,6.91,2.44,2.9,0,4.45-1.11,4.98-4.51,1.64,8.88-4.32,9.57-11.11,10.36-4.81.56-10.03,1.16-13.28,4.75-1.51,1.67-2.43,3.54-3.34,5.39-.87,1.76-1.72,3.48-3.04,4.96-1.9-1.16-4.06-2.12-6.41-2.81ZM121.38,48.15h0s-.01.03-.02.06c0,0,0,0,0,0,.6-6.25,2.64-12.61,5.62-18.56-6.81.04-12.32,5.59-12.32,12.4,0,4.32,2.21,8.12,5.56,10.35.3-1.39.68-2.78,1.14-4.2.01-.02.02-.05.02-.06ZM132.84,64.95c4.94,1.18,10.09-2.77,11.53-8.81,1.43-6.03-1.39-11.87-6.33-13.05-4.94-1.18-10.09,2.77-11.53,8.81-1.43,6.03,1.4,11.87,6.33,13.05Z" fill="#fff" fill-rule="evenodd"/></svg>